Coordinates
version=1
nRows=16
nColumns=63
inDegrees=yes

Units are S.I. units (second, meters, Newtons, ...)
If the header above contains a line with 'inDegrees', this indicates whether rotational values are in degrees (yes) or radians (no).

endheader
time	pelvis_tilt	pelvis_list	pelvis_rotation	pelvis_tx	pelvis_ty	pelvis_tz	hip_flexion_r	hip_adduction_r	hip_rotation_r	knee_angle_r	knee_angle_r_beta	ankle_angle_r	subtalar_angle_r	mtp_angle_r	hip_flexion_l	hip_adduction_l	hip_rotation_l	knee_angle_l	knee_angle_l_beta	ankle_angle_l	subtalar_angle_l	mtp_angle_l	L5_S1_Flex_Ext	L5_S1_Lat_Bending	L5_S1_axial_rotation	L4_L5_Flex_Ext	L4_L5_Lat_Bending	L4_L5_axial_rotation	L3_L4_Flex_Ext	L3_L4_Lat_Bending	L3_L4_axial_rotation	L2_L3_Flex_Ext	L2_L3_Lat_Bending	L2_L3_axial_rotation	L1_L2_Flex_Ext	L1_L2_Lat_Bending	L1_L2_axial_rotation	L1_T12_Flex_Ext	L1_T12_Lat_Bending	L1_T12_axial_rotation	Abs_r3	Abs_r2	Abs_r1	Abs_t1	Abs_t2	neck_flexion	neck_bending	neck_rotation	arm_flex_r	arm_add_r	arm_rot_r	elbow_flex_r	pro_sup_r	wrist_flex_r	wrist_dev_r	arm_flex_l	arm_add_l	arm_rot_l	elbow_flex_l	pro_sup_l	wrist_flex_l	wrist_dev_l
0.813953	1.356805	-2.364064	99.079590	0.284708	0.823083	0.557450	-2.801617	0.360666	4.073128	1.323713	0.023103	23.705222	-10.791408	0.000000	-0.863720	-0.264846	25.620554	1.050449	0.018334	24.600581	-15.043107	0.000000	0.155033	0.200825	-1.049749	0.287913	0.267098	-1.115359	0.254705	0.488287	-1.115359	0.177188	0.488287	-0.918531	0.143964	0.409523	-0.852921	0.088586	0.311078	-0.787312	1.107389	2.271777	-5.838390	0.000000	0.000000	24.815939	3.060831	18.274352	10.239250	-12.651526	65.893949	43.588784	49.614829	6.392087	0.329193	10.576648	-9.301971	54.619109	44.625565	66.520777	15.121144	0.995019
0.837209	1.357962	-2.179759	99.299033	0.284304	0.823353	0.557387	-3.053554	0.403311	3.982954	1.271306	0.022188	23.718155	-10.895596	0.000000	-1.050233	-0.291404	25.991646	1.046933	0.018272	24.581174	-15.244754	0.000000	0.151349	0.194190	-1.087105	0.281071	0.258272	-1.155049	0.248652	0.472153	-1.155049	0.172977	0.472153	-0.951217	0.140543	0.395992	-0.883273	0.086481	0.300800	-0.815329	1.081073	2.196713	-6.046153	0.000000	0.000000	24.875683	2.665425	16.268121	10.529994	-12.603693	67.018120	43.403728	47.116018	6.315390	0.474437	10.395697	-9.361615	54.567855	44.662268	66.593188	15.049326	1.022240
0.860465	1.364116	-2.010859	99.495834	0.283951	0.823579	0.557383	-3.282462	0.452866	3.887283	1.227363	0.021422	23.743445	-10.970215	0.000000	-1.217620	-0.322066	26.292130	1.050157	0.018329	24.621420	-15.370468	0.000000	0.149730	0.187503	-1.126832	0.278063	0.249379	-1.197259	0.245991	0.455896	-1.197259	0.171126	0.455896	-0.985978	0.139039	0.382357	-0.915551	0.085555	0.290443	-0.845124	1.069504	2.121075	-6.267099	0.000000	0.000000	24.881411	2.246001	14.085401	10.835062	-12.549365	68.176436	43.234803	44.555473	6.275047	0.658938	10.192344	-9.419727	54.405818	44.714840	66.764097	15.040138	1.149953
0.883721	1.373589	-1.857230	99.657155	0.283667	0.823761	0.557444	-3.483883	0.507270	3.805408	1.198881	0.020924	23.771705	-11.048140	0.000000	-1.365586	-0.355410	26.458042	1.060611	0.018511	24.730304	-15.345165	0.000000	0.148747	0.181067	-1.162338	0.276238	0.240819	-1.234984	0.244377	0.440247	-1.234984	0.170003	0.440247	-1.017046	0.138127	0.369232	-0.944399	0.084994	0.280473	-0.871753	1.062487	2.048268	-6.464574	0.000000	0.000000	24.858799	1.817611	11.848252	11.140392	-12.497845	69.306342	43.092091	42.033836	6.262213	0.866768	10.004344	-9.463651	54.168032	44.767744	66.991257	15.101337	1.392721
0.906977	1.384304	-1.720009	99.798533	0.283447	0.823894	0.557543	-3.662723	0.563732	3.719483	1.181040	0.020613	23.802203	-11.118191	0.000000	-1.496402	-0.389459	26.651972	1.070477	0.018683	24.842459	-15.384653	0.000000	0.149046	0.173946	-1.188605	0.276793	0.231348	-1.262893	0.244867	0.422933	-1.262893	0.170344	0.422933	-1.040030	0.138404	0.354711	-0.965742	0.085165	0.269443	-0.891454	1.064619	1.967714	-6.610667	0.000000	0.000000	24.808619	1.371136	9.563108	11.404451	-12.452266	70.328378	42.980000	39.562687	6.280874	1.106421	9.900969	-9.509011	54.071950	44.801846	67.042399	15.153300	1.653187
0.930233	1.395083	-1.601530	99.915626	0.283290	0.823983	0.557668	-3.813868	0.617389	3.563127	1.179454	0.020585	23.852698	-11.086911	0.000000	-1.607083	-0.422320	26.801501	1.081817	0.018881	24.973640	-15.392664	0.000000	0.150536	0.166305	-1.203334	0.279560	0.221186	-1.278543	0.247315	0.404354	-1.278543	0.172047	0.404354	-1.052918	0.139787	0.339129	-0.977709	0.086016	0.257607	-0.902501	1.075262	1.881276	-6.692585	0.000000	0.000000	24.745580	0.935013	7.353913	11.628043	-12.417797	71.229477	42.903113	37.256662	6.319851	1.351235	9.876915	-9.538127	54.074807	44.797952	67.068261	15.212360	1.859085
0.953488	1.406750	-1.498146	100.006172	0.283186	0.824045	0.557789	-3.941857	0.666793	3.341527	1.193134	0.020824	23.917054	-10.951492	0.000000	-1.704375	-0.454690	26.913187	1.091955	0.019058	25.109302	-15.388274	0.000000	0.152991	0.158670	-1.207296	0.284119	0.211031	-1.282752	0.251349	0.385791	-1.282752	0.174853	0.385791	-1.056384	0.142067	0.323560	-0.980928	0.087419	0.245780	-0.905472	1.092799	1.794909	-6.714621	0.000000	0.000000	24.668687	0.535253	5.318128	11.826268	-12.394896	72.038237	42.838713	35.357588	6.388010	1.506788	9.942997	-9.563132	54.257770	44.766601	66.919567	15.201381	1.974035
0.976744	1.423287	-1.404335	100.082215	0.283098	0.824096	0.557894	-4.054212	0.715370	3.081143	1.216771	0.021237	23.971997	-10.756085	0.000000	-1.793568	-0.490331	27.033229	1.099491	0.019190	25.226007	-15.428331	0.000000	0.155874	0.151981	-1.209168	0.289473	0.202135	-1.284741	0.256085	0.369526	-1.284741	0.178148	0.369526	-1.058022	0.144744	0.309920	-0.982449	0.089066	0.235418	-0.906876	1.113389	1.719239	-6.725030	0.000000	0.000000	24.570129	0.182740	3.544950	12.030828	-12.377454	72.828348	42.771808	33.946989	6.464765	1.518785	10.043196	-9.584360	54.495053	44.736234	66.668649	15.083613	2.012728
1.000000	1.438795	-1.313630	100.141456	0.283019	0.824154	0.557948	-4.159768	0.758100	2.804727	1.247023	0.021765	24.011258	-10.525736	0.000000	-1.883029	-0.525097	27.030237	1.107209	0.019324	25.375315	-15.314162	0.000000	0.158754	0.145254	-1.208025	0.294822	0.193188	-1.283527	0.260817	0.353170	-1.283527	0.181440	0.353170	-1.057022	0.147419	0.296202	-0.981521	0.090712	0.224998	-0.906019	1.133964	1.643140	-6.718674	0.000000	0.000000	24.419269	-0.092554	2.028232	12.226640	-12.351024	73.558597	42.664797	33.054311	6.650900	1.388686	10.181557	-9.608024	54.828011	44.683746	66.279646	14.898179	1.892220
1.023256	1.460595	-1.220066	100.207480	0.282891	0.824232	0.557927	-4.267786	0.803872	2.537282	1.276927	0.022287	24.021448	-10.311909	0.000000	-1.980161	-0.566861	27.034527	1.109841	0.019370	25.512894	-15.198519	0.000000	0.161200	0.139726	-1.214450	0.299365	0.185836	-1.290353	0.264835	0.339731	-1.290353	0.184235	0.339731	-1.062643	0.149690	0.284930	-0.986740	0.092110	0.216436	-0.910837	1.151435	1.580612	-6.754404	0.000000	0.000000	24.206250	-0.257800	0.838942	12.436375	-12.320088	74.308267	42.543707	32.484983	6.856600	1.161577	10.296187	-9.632772	55.124704	44.646975	65.821361	14.613264	1.684514
1.046512	1.491608	-1.113223	100.265500	0.282704	0.824350	0.557821	-4.385162	0.852081	2.274173	1.308681	0.022841	24.032554	-10.058936	0.000000	-2.097433	-0.617958	27.015205	1.108907	0.019354	25.647565	-15.053704	0.000000	0.161630	0.135932	-1.223192	0.300162	0.180790	-1.299641	0.265541	0.330505	-1.299641	0.184726	0.330505	-1.070293	0.150089	0.277193	-0.993843	0.092355	0.210559	-0.917394	1.154503	1.537691	-6.803024	0.000000	0.000000	23.926054	-0.322220	-0.048774	12.637073	-12.290992	75.013743	42.403142	32.269953	7.111932	0.835613	10.403112	-9.650534	55.413913	44.602722	65.411076	14.264619	1.349439
1.069767	1.529902	-0.998703	100.335829	0.282416	0.824502	0.557617	-4.507599	0.900740	1.940283	1.344519	0.023466	24.077732	-9.690944	0.000000	-2.226952	-0.675705	26.988409	1.106741	0.019316	25.787042	-14.868455	0.000000	0.161028	0.133840	-1.239470	0.299045	0.178007	-1.316937	0.264553	0.325418	-1.316937	0.184039	0.325418	-1.084536	0.149531	0.272926	-1.007070	0.092011	0.207318	-0.929603	1.150207	1.514024	-6.893562	0.000000	0.000000	23.602578	-0.264544	-0.610336	12.810872	-12.263328	75.640866	42.254366	32.305787	7.406479	0.452795	10.480635	-9.657815	55.645621	44.553082	65.046640	13.900781	0.933216
1.093023	1.570409	-0.874184	100.398504	0.282051	0.824676	0.557300	-4.642023	0.948500	1.796862	1.377122	0.024035	24.075076	-9.576417	0.000000	-2.376807	-0.734557	26.980748	1.098386	0.019170	25.911567	-14.714466	0.000000	0.158296	0.133020	-1.260317	0.293972	0.176916	-1.339086	0.260065	0.323424	-1.339086	0.180917	0.323424	-1.102777	0.146994	0.271254	-1.024007	0.090451	0.206048	-0.945237	1.130695	1.504746	-7.009502	0.000000	0.000000	23.274814	-0.077311	-0.857564	12.945370	-12.246596	76.163741	42.140498	32.492919	7.652270	0.095216	10.493234	-9.653132	55.703256	44.551203	64.783099	13.544892	0.642294
1.116279	1.611999	-0.747208	100.444971	0.281629	0.824857	0.556875	-4.775832	0.991435	1.732042	1.419350	0.024772	24.079233	-9.550429	0.000000	-2.539046	-0.791870	26.990110	1.084353	0.018926	26.017125	-14.606312	0.000000	0.154106	0.133416	-1.281496	0.286190	0.177443	-1.361590	0.253181	0.324388	-1.361590	0.176128	0.324388	-1.121309	0.143103	0.272062	-1.041216	0.088056	0.206661	-0.961122	1.100765	1.509229	-7.127299	0.000000	0.000000	22.982167	0.217048	-0.843932	13.024885	-12.245182	76.538207	42.065198	32.838993	7.851498	-0.225105	10.459302	-9.636725	55.638237	44.584553	64.607665	13.230515	0.465022
1.139535	1.654792	-0.624682	100.468415	0.281173	0.825031	0.556347	-4.900877	1.030046	1.779574	1.474718	0.025739	24.076138	-9.667266	0.000000	-2.705856	-0.847114	26.990364	1.065231	0.018592	26.109553	-14.521503	0.000000	0.149064	0.135137	-1.300272	0.276827	0.179732	-1.381539	0.244897	0.328571	-1.381539	0.170365	0.328571	-1.137738	0.138421	0.275571	-1.056471	0.085175	0.209327	-0.975204	1.064749	1.528694	-7.231721	0.000000	0.000000	22.760524	0.611536	-0.604583	13.048309	-12.263738	76.740191	42.028109	33.456627	8.005100	-0.483694	10.389328	-9.610329	55.485632	44.649813	64.516277	12.972024	0.412675
1.162791	1.683887	-0.511366	100.451188	0.280724	0.825200	0.555707	-5.013113	1.048007	1.949739	1.545126	0.026968	24.069261	-9.919754	0.000000	-2.877231	-0.883225	26.975406	1.039813	0.018148	26.178946	-14.490034	0.000000	0.144387	0.135906	-1.307231	0.268142	0.180755	-1.388933	0.237214	0.330441	-1.388933	0.165020	0.330441	-1.143827	0.134078	0.277139	-1.062125	0.082503	0.210518	-0.980423	1.031345	1.537394	-7.270425	0.000000	0.000000	22.610594	1.051912	-0.281890	12.999506	-12.300005	76.780535	42.031107	34.075940	8.093143	-0.686885	10.303473	-9.568192	55.292744	44.722060	64.506593	12.819515	0.500711
